<?xml version="1.0" standalone="no"?>
<!DOCTYPE svg PUBLIC "-//W3C//DTD SVG 20010904//EN"
 "http://www.w3.org/TR/2001/REC-SVG-20010904/DTD/svg10.dtd">
<svg version="1.0" xmlns="http://www.w3.org/2000/svg"
 width="1000.000000pt" height="1000.000000pt" viewBox="0 0 1000.000000 1000.000000"
 preserveAspectRatio="xMidYMid meet">
<metadata>
Created by potrace 1.14, written by Peter Selinger 2001-2017
</metadata>
<g transform="translate(0.000000,1000.000000) scale(0.100000,-0.100000)"
fill="#000000" stroke="none">
<path d="M4506 8743 c-1 -2 -53 -5 -115 -8 -121 -5 -157 -10 -211 -26 -48 -15
-223 -100 -232 -113 -4 -6 -8 -8 -8 -4 0 13 -175 -82 -241 -131 -90 -69 -315
-303 -371 -387 -47 -71 -139 -266 -246 -524 -112 -269 -146 -364 -346 -970
-164 -496 -253 -709 -421 -1005 -141 -250 -249 -389 -460 -600 -101 -101 -302
-268 -406 -337 -124 -82 -268 -140 -432 -173 -106 -21 -168 -46 -220 -89 -123
-101 -134 -259 -25 -368 82 -82 161 -101 383 -93 406 15 847 84 1365 212 177
44 198 46 227 20 49 -44 26 -83 -137 -235 -371 -346 -492 -486 -589 -678 -135
-269 -170 -602 -90 -854 78 -242 286 -516 549 -724 47 -36 90 -71 97 -76 7 -6
15 -10 19 -10 3 0 17 -9 31 -20 14 -11 30 -17 36 -13 5 3 7 2 4 -4 -5 -8 109
-83 127 -83 4 0 14 -6 21 -14 45 -44 442 -196 605 -230 14 -3 54 -13 89 -21
36 -9 73 -14 83 -12 10 3 16 1 12 -4 -3 -5 3 -10 13 -10 22 -2 38 -4 128 -18
165 -24 286 -35 402 -36 57 0 103 -3 103 -6 0 -8 409 -4 575 6 72 4 136 8 143
8 6 0 12 3 12 7 0 3 13 5 28 4 16 -1 67 2 113 8 46 5 91 9 99 10 8 0 42 4 75
9 33 5 83 11 110 14 50 6 203 29 260 40 17 3 46 7 65 10 52 9 273 55 290 62 8
3 24 7 35 9 30 5 60 12 60 14 0 1 9 3 20 5 72 13 318 86 334 99 8 6 16 10 18
8 4 -4 65 8 78 16 6 4 18 8 27 9 67 11 515 210 559 249 8 8 19 14 23 14 11 0
151 91 154 101 2 5 8 9 13 9 15 0 104 72 101 82 -1 5 1 7 6 4 16 -9 184 147
308 285 32 36 154 207 175 244 141 260 210 497 209 716 0 35 0 87 0 114 -1 48
-14 177 -26 240 -4 25 -13 60 -49 205 -2 8 -14 47 -25 85 -12 39 -24 80 -27
92 -3 13 -8 21 -12 19 -3 -2 -7 6 -7 19 -2 35 -86 245 -95 239 -5 -3 -6 2 -3
10 3 8 -1 28 -9 43 -19 37 -61 127 -61 133 -1 5 -91 168 -133 240 -14 25 -30
47 -34 48 -5 2 -9 8 -9 13 0 15 -121 179 -133 179 -6 0 -8 3 -4 6 5 5 -46 77
-73 104 -3 3 -30 34 -60 70 -30 36 -72 83 -92 105 -24 26 -36 47 -34 60 19 97
34 100 531 98 187 -1 281 -6 425 -24 201 -25 625 -35 612 -14 -4 6 -1 6 9 -1
14 -10 21 -10 98 0 57 7 171 45 171 57 0 5 6 9 13 9 8 0 39 25 70 55 54 53 94
113 100 152 1 10 6 23 9 29 13 20 2 148 -14 179 -15 28 -48 64 -80 91 -20 16
-96 32 -178 39 -41 3 -133 9 -205 15 -71 5 -155 16 -185 25 -148 44 -520 265
-746 444 -39 31 -140 108 -224 171 -299 225 -406 316 -500 426 -13 16 -73 85
-131 154 -105 123 -191 207 -493 484 -49 44 -98 90 -110 101 -67 65 -253 229
-317 280 -40 33 -76 62 -79 65 -3 3 -39 30 -80 60 -41 30 -77 57 -80 60 -3 3
-34 25 -70 50 -36 24 -94 66 -130 93 -179 134 -277 189 -550 306 -91 40 -174
75 -185 80 -120 53 -200 79 -261 87 -53 7 -163 12 -168 7z"/>
</g>
</svg>
