<?xml version="1.0" encoding="UTF-8" ?>
<!DOCTYPE svg PUBLIC "-//W3C//DTD SVG 1.1//EN" "http://www.w3.org/Graphics/SVG/1.1/DTD/svg11.dtd">
<svg width="1366pt" height="720pt" viewBox="0 0 1366 720" version="1.1" xmlns="http://www.w3.org/2000/svg">
<g id="#13192dff">
<path fill="#13192d" opacity="1.00" d=" M 0.00 0.00 L 1366.00 0.00 L 1366.00 199.40 C 1358.39 200.26 1350.32 198.66 1344.30 193.74 C 1337.31 188.40 1334.08 179.89 1331.42 171.83 C 1329.55 165.66 1324.84 161.03 1320.10 156.93 C 1306.01 144.49 1288.16 137.38 1273.92 125.14 C 1262.53 115.68 1252.19 103.29 1250.42 88.06 C 1246.77 89.44 1242.91 89.88 1239.08 90.32 C 1232.55 91.69 1229.88 99.72 1223.01 100.05 C 1219.31 100.86 1215.35 101.11 1212.04 103.08 C 1208.16 105.79 1205.02 109.36 1201.78 112.75 C 1199.00 115.69 1195.49 117.78 1192.62 120.60 C 1188.85 124.21 1185.83 128.56 1181.73 131.81 C 1176.19 136.11 1172.23 141.98 1167.38 146.97 C 1165.58 140.30 1166.16 133.31 1165.21 126.52 C 1164.33 122.59 1163.49 118.63 1162.24 114.81 C 1160.88 111.26 1156.84 110.11 1153.39 110.67 C 1147.09 107.50 1140.19 103.94 1132.92 105.20 C 1129.12 105.84 1124.81 106.03 1121.97 108.98 C 1119.64 111.16 1116.26 111.66 1113.94 113.86 C 1107.54 120.17 1099.60 124.93 1094.50 132.51 C 1087.25 140.23 1084.56 150.69 1081.79 160.60 C 1079.17 157.63 1076.41 154.61 1075.18 150.76 C 1072.74 143.92 1068.15 138.02 1062.81 133.18 C 1060.80 131.29 1057.98 132.10 1055.72 132.95 C 1047.72 124.38 1043.21 113.43 1036.56 103.93 C 1033.87 109.84 1031.78 116.01 1028.74 121.75 C 1026.25 125.21 1022.66 127.71 1020.13 131.15 C 1016.17 135.58 1015.11 141.68 1011.64 146.43 C 1011.09 146.64 1009.98 147.07 1009.43 147.28 C 1006.00 153.58 997.38 152.77 992.65 157.65 C 988.67 161.78 985.22 166.40 981.75 170.97 C 980.23 170.26 978.71 169.56 977.20 168.86 C 976.87 159.22 977.50 149.54 976.56 139.92 C 976.36 135.79 972.77 132.61 968.94 131.72 C 966.03 131.33 963.22 132.46 960.56 133.48 C 952.33 136.78 943.81 139.60 936.16 144.15 C 928.99 149.17 921.74 154.26 915.87 160.82 C 913.17 163.83 909.56 165.86 907.05 169.03 C 905.57 170.88 905.72 173.35 905.49 175.58 C 897.65 187.43 891.55 200.33 884.80 212.80 C 880.48 218.80 875.36 224.23 871.59 230.64 C 867.25 238.29 861.64 245.37 854.34 250.40 C 853.91 238.24 854.31 225.90 851.24 214.02 C 849.55 206.29 846.66 198.89 843.16 191.82 C 841.59 188.78 838.76 185.93 835.11 185.95 C 828.94 185.73 821.74 187.84 818.70 193.69 C 816.45 197.50 813.21 200.57 810.71 204.20 C 805.96 195.11 802.51 185.40 797.82 176.27 C 795.31 171.42 797.05 164.45 792.06 161.02 C 785.37 155.70 779.86 149.14 774.13 142.86 C 762.86 130.74 750.99 118.92 736.87 110.13 C 733.55 107.73 728.94 106.36 727.54 102.10 C 726.25 98.31 722.35 96.76 719.48 94.40 C 715.81 91.42 711.21 90.00 706.86 88.36 C 696.31 86.41 685.77 89.37 675.23 89.76 C 664.95 90.63 655.22 94.42 644.99 95.54 C 636.20 96.55 627.69 99.09 618.88 99.91 C 607.69 102.05 596.43 103.97 585.48 107.16 C 578.81 108.27 572.28 110.00 565.76 111.74 C 553.78 114.41 541.88 117.41 529.93 120.16 C 522.01 122.30 514.23 125.10 507.04 129.05 C 502.50 132.46 498.24 136.43 495.37 141.39 C 488.56 149.80 485.43 160.34 480.62 169.87 C 479.57 169.68 478.52 169.49 477.49 169.31 C 470.99 160.30 462.75 152.75 453.96 146.03 C 448.11 143.03 441.40 142.97 435.06 144.01 C 426.92 144.96 420.77 138.71 415.57 133.41 C 413.14 130.93 410.04 127.14 406.14 129.05 C 403.77 131.05 401.71 133.46 398.82 134.76 C 394.37 130.26 388.03 128.94 381.98 128.27 C 380.40 128.13 378.66 128.30 377.43 129.41 C 372.79 133.58 369.35 138.87 366.15 144.19 C 363.51 148.34 363.09 153.42 360.83 157.75 C 356.34 166.85 351.31 175.82 348.83 185.73 C 346.88 193.37 343.22 200.99 344.46 209.06 C 345.28 213.66 346.52 218.19 347.78 222.69 C 345.14 224.46 342.49 226.22 339.83 227.96 C 335.94 222.83 336.08 216.23 334.47 210.31 C 326.80 195.40 319.04 180.31 314.86 163.98 C 314.34 162.19 313.78 159.98 311.79 159.29 C 308.34 157.90 305.58 161.22 303.17 163.16 C 297.20 169.12 292.17 176.15 289.08 184.04 C 286.71 190.06 282.60 195.18 280.18 201.18 C 278.14 206.41 273.85 210.30 271.55 215.37 C 267.87 223.97 262.80 231.94 259.83 240.83 C 254.67 254.13 245.54 265.28 237.20 276.66 C 235.74 274.88 233.46 273.43 233.00 271.05 C 233.72 267.12 235.98 263.66 236.58 259.70 C 237.23 254.92 236.50 250.07 235.40 245.41 C 233.74 238.35 233.89 231.02 232.72 223.90 C 230.24 215.87 224.83 208.65 217.46 204.51 C 214.62 203.39 211.48 203.95 208.52 203.93 C 209.21 198.01 208.10 191.97 205.18 186.77 C 202.76 182.89 202.24 178.30 201.41 173.91 C 200.43 168.47 203.51 163.09 202.21 157.67 C 201.03 154.51 196.95 154.08 194.13 155.02 C 190.45 156.28 187.13 158.39 183.46 159.68 C 180.17 161.05 176.31 162.04 174.21 165.18 C 171.26 169.46 169.42 174.36 167.38 179.12 C 166.50 181.34 164.40 182.64 162.63 184.09 C 159.47 178.33 154.03 173.68 147.87 171.43 C 142.82 171.19 137.40 173.20 134.41 177.43 C 129.80 183.50 127.84 191.02 125.01 197.98 C 119.70 210.83 116.14 224.29 111.63 237.41 C 107.51 249.32 105.35 261.75 102.23 273.93 C 100.08 283.94 97.09 293.73 94.46 303.62 C 92.11 314.30 89.74 324.97 86.38 335.39 C 81.26 329.36 78.61 321.68 76.59 314.14 C 73.81 307.82 72.80 300.77 69.10 294.87 C 66.97 290.99 61.20 290.03 57.87 292.86 C 53.63 297.02 52.12 303.00 48.77 307.78 C 44.49 314.44 41.18 322.47 34.03 326.59 C 31.19 322.89 28.74 318.77 25.08 315.80 C 22.91 314.13 20.20 315.22 17.92 316.00 C 17.24 315.05 16.56 314.09 15.88 313.14 C 12.43 318.10 10.58 323.98 10.05 329.97 C 9.31 334.63 10.27 339.67 7.92 343.98 C 3.96 351.95 1.39 360.56 0.00 369.34 L 0.00 0.00 Z" />
</g>
</svg>
